<?xml version="1.0" encoding="UTF-8"?><svg xmlns="http://www.w3.org/2000/svg" viewBox="0 0 483.72 133.16"><g><path fill="#000000" d="M11.5,14.36H2.85c-1.57,0-2.85-1.28-2.85-2.85V2.85C0,1.28,1.28,0,2.85,0h8.65c1.57,0,2.85,1.28,2.85,2.85v8.65c0,1.57-1.28,2.85-2.85,2.85ZM34.32,11.5V2.85c0-1.57-1.28-2.85-2.85-2.85h-8.65c-1.57,0-2.85,1.28-2.85,2.85v8.65c0,1.57,1.28,2.85,2.85,2.85h8.65c1.57,0,2.85-1.28,2.85-2.85ZM54.29,11.5V2.85c0-1.57-1.28-2.85-2.85-2.85h-8.65c-1.57,0-2.85,1.28-2.85,2.85v8.65c0,1.57,1.28,2.85,2.85,2.85h8.65c1.57,0,2.85-1.28,2.85-2.85ZM74.25,11.5V2.85c0-1.57-1.28-2.85-2.85-2.85h-8.65c-1.57,0-2.85,1.28-2.85,2.85v8.65c0,1.57,1.28,2.85,2.85,2.85h8.65c1.57,0,2.85-1.28,2.85-2.85ZM94.22,11.5V2.85c0-1.57-1.28-2.85-2.85-2.85h-8.65c-1.57,0-2.85,1.28-2.85,2.85v8.65c0,1.57,1.28,2.85,2.85,2.85h8.65c1.57,0,2.85-1.28,2.85-2.85ZM114.19,11.5V2.85c0-1.57-1.28-2.85-2.85-2.85h-8.65c-1.57,0-2.85,1.28-2.85,2.85v8.65c0,1.57,1.28,2.85,2.85,2.85h8.65c1.57,0,2.85-1.28,2.85-2.85ZM134.15,11.5V2.85c0-1.57-1.28-2.85-2.85-2.85h-8.65c-1.57,0-2.85,1.28-2.85,2.85v8.65c0,1.57,1.28,2.85,2.85,2.85h8.65c1.57,0,2.85-1.28,2.85-2.85ZM114.19,31.31v-8.65c0-1.57-1.28-2.85-2.85-2.85h-8.65c-1.57,0-2.85,1.28-2.85,2.85v8.65c0,1.57,1.28,2.85,2.85,2.85h8.65c1.57,0,2.85-1.28,2.85-2.85ZM134.15,31.31v-8.65c0-1.57-1.28-2.85-2.85-2.85h-8.65c-1.57,0-2.85,1.28-2.85,2.85v8.65c0,1.57,1.28,2.85,2.85,2.85h8.65c1.57,0,2.85-1.28,2.85-2.85ZM94.22,51.11v-8.65c0-1.57-1.28-2.85-2.85-2.85h-8.65c-1.57,0-2.85,1.28-2.85,2.85v8.65c0,1.57,1.28,2.85,2.85,2.85h8.65c1.57,0,2.85-1.28,2.85-2.85ZM114.19,51.11v-8.65c0-1.57-1.28-2.85-2.85-2.85h-8.65c-1.57,0-2.85,1.28-2.85,2.85v8.65c0,1.57,1.28,2.85,2.85,2.85h8.65c1.57,0,2.85-1.28,2.85-2.85ZM74.25,70.91v-8.65c0-1.57-1.28-2.85-2.85-2.85h-8.65c-1.57,0-2.85,1.28-2.85,2.85v8.65c0,1.57,1.28,2.85,2.85,2.85h8.65c1.57,0,2.85-1.28,2.85-2.85ZM94.22,70.91v-8.65c0-1.57-1.28-2.85-2.85-2.85h-8.65c-1.57,0-2.85,1.28-2.85,2.85v8.65c0,1.57,1.28,2.85,2.85,2.85h8.65c1.57,0,2.85-1.28,2.85-2.85ZM54.29,90.71v-8.65c0-1.57-1.28-2.85-2.85-2.85h-8.65c-1.57,0-2.85,1.28-2.85,2.85v8.65c0,1.57,1.28,2.85,2.85,2.85h8.65c1.57,0,2.85-1.28,2.85-2.85ZM74.25,90.71v-8.65c0-1.57-1.28-2.85-2.85-2.85h-8.65c-1.57,0-2.85,1.28-2.85,2.85v8.65c0,1.57,1.28,2.85,2.85,2.85h8.65c1.57,0,2.85-1.28,2.85-2.85ZM34.32,110.51v-8.65c0-1.57-1.28-2.85-2.85-2.85h-8.65c-1.57,0-2.85,1.28-2.85,2.85v8.65c0,1.57,1.28,2.85,2.85,2.85h8.65c1.57,0,2.85-1.28,2.85-2.85ZM54.29,110.51v-8.65c0-1.57-1.28-2.85-2.85-2.85h-8.65c-1.57,0-2.85,1.28-2.85,2.85v8.65c0,1.57,1.28,2.85,2.85,2.85h8.65c1.57,0,2.85-1.28,2.85-2.85ZM14.36,130.31v-8.65c0-1.57-1.28-2.85-2.85-2.85H2.85c-1.57,0-2.85,1.28-2.85,2.85v8.65c0,1.57,1.28,2.85,2.85,2.85h8.65c1.57,0,2.85-1.28,2.85-2.85ZM34.32,130.31v-8.65c0-1.57-1.28-2.85-2.85-2.85h-8.65c-1.57,0-2.85,1.28-2.85,2.85v8.65c0,1.57,1.28,2.85,2.85,2.85h8.65c1.57,0,2.85-1.28,2.85-2.85ZM54.29,130.31v-8.65c0-1.57-1.28-2.85-2.85-2.85h-8.65c-1.57,0-2.85,1.28-2.85,2.85v8.65c0,1.57,1.28,2.85,2.85,2.85h8.65c1.57,0,2.85-1.28,2.85-2.85ZM74.25,130.31v-8.65c0-1.57-1.28-2.85-2.85-2.85h-8.65c-1.57,0-2.85,1.28-2.85,2.85v8.65c0,1.57,1.28,2.85,2.85,2.85h8.65c1.57,0,2.85-1.28,2.85-2.85ZM94.22,130.31v-8.65c0-1.57-1.28-2.85-2.85-2.85h-8.65c-1.57,0-2.85,1.28-2.85,2.85v8.65c0,1.57,1.28,2.85,2.85,2.85h8.65c1.57,0,2.85-1.28,2.85-2.85ZM114.19,130.31v-8.65c0-1.57-1.28-2.85-2.85-2.85h-8.65c-1.57,0-2.85,1.28-2.85,2.85v8.65c0,1.57,1.28,2.85,2.85,2.85h8.65c1.57,0,2.85-1.28,2.85-2.85ZM134.15,130.31v-8.65c0-1.57-1.28-2.85-2.85-2.85h-8.65c-1.57,0-2.85,1.28-2.85,2.85v8.65c0,1.57,1.28,2.85,2.85,2.85h8.65c1.57,0,2.85-1.28,2.85-2.85ZM250.55,38.37h-59.61v8.49h44.77l-46.25,42.29v6.93h62.41v-8.49h-47.57l46.25-42.29v-6.93ZM316.18,38.37v29.84c0,12.94-7.67,20.78-21.52,20.78s-21.44-7.83-21.44-20.78v-29.84h-9.89v30.5c0,17.07,10.96,28.94,31.33,28.94s31.41-11.87,31.41-28.94v-30.5h-9.89ZM406.71,96.08l-18.71-21.44c10.06-1.81,16.98-7.91,16.98-17.89,0-11.95-9.89-18.39-23.33-18.39h-39.24v57.71h9.89v-20.94h24.32l17.89,20.94h12.2ZM352.21,66.65v-19.62h28.77c8.24,0,13.85,2.64,13.85,9.81s-5.61,9.81-13.85,9.81h-28.77ZM472.92,96.08h10.8l-31.16-57.71h-10.88l-31.25,57.71h10.72l7.34-13.93h37.02l7.42,13.93ZM432.93,73.73l14.1-26.71,14.1,26.71h-28.2Z"/></g></svg>