<?xml version="1.0" encoding="UTF-8"?><svg xmlns="http://www.w3.org/2000/svg" viewBox="0 0 134.15 133.16"><g><path fill="#000000" d="M11.5,14.36H2.85c-1.57,0-2.85-1.28-2.85-2.85V2.85C0,1.28,1.28,0,2.85,0h8.65c1.57,0,2.85,1.28,2.85,2.85v8.65c0,1.57-1.28,2.85-2.85,2.85ZM34.32,11.5V2.85c0-1.57-1.28-2.85-2.85-2.85h-8.65c-1.57,0-2.85,1.28-2.85,2.85v8.65c0,1.57,1.28,2.85,2.85,2.85h8.65c1.57,0,2.85-1.28,2.85-2.85ZM54.29,11.5V2.85c0-1.57-1.28-2.85-2.85-2.85h-8.65c-1.57,0-2.85,1.28-2.85,2.85v8.65c0,1.57,1.28,2.85,2.85,2.85h8.65c1.57,0,2.85-1.28,2.85-2.85ZM74.25,11.5V2.85c0-1.57-1.28-2.85-2.85-2.85h-8.65c-1.57,0-2.85,1.28-2.85,2.85v8.65c0,1.57,1.28,2.85,2.85,2.85h8.65c1.57,0,2.85-1.28,2.85-2.85ZM94.22,11.5V2.85c0-1.57-1.28-2.85-2.85-2.85h-8.65c-1.57,0-2.85,1.28-2.85,2.85v8.65c0,1.57,1.28,2.85,2.85,2.85h8.65c1.57,0,2.85-1.28,2.85-2.85ZM114.19,11.5V2.85c0-1.57-1.28-2.85-2.85-2.85h-8.65c-1.57,0-2.85,1.28-2.85,2.85v8.65c0,1.57,1.28,2.85,2.85,2.85h8.65c1.57,0,2.85-1.28,2.85-2.85ZM134.15,11.5V2.85c0-1.57-1.28-2.85-2.85-2.85h-8.65c-1.57,0-2.85,1.28-2.85,2.85v8.65c0,1.57,1.28,2.85,2.85,2.85h8.65c1.57,0,2.85-1.28,2.85-2.85ZM114.19,31.31v-8.65c0-1.57-1.28-2.85-2.85-2.85h-8.65c-1.57,0-2.85,1.28-2.85,2.85v8.65c0,1.57,1.28,2.85,2.85,2.85h8.65c1.57,0,2.85-1.28,2.85-2.85ZM134.15,31.31v-8.65c0-1.57-1.28-2.85-2.85-2.85h-8.65c-1.57,0-2.85,1.28-2.85,2.85v8.65c0,1.57,1.28,2.85,2.85,2.85h8.65c1.57,0,2.85-1.28,2.85-2.85ZM94.22,51.11v-8.65c0-1.57-1.28-2.85-2.85-2.85h-8.65c-1.57,0-2.85,1.28-2.85,2.85v8.65c0,1.57,1.28,2.85,2.85,2.85h8.65c1.57,0,2.85-1.28,2.85-2.85ZM114.19,51.11v-8.65c0-1.57-1.28-2.85-2.85-2.85h-8.65c-1.57,0-2.85,1.28-2.85,2.85v8.65c0,1.57,1.28,2.85,2.85,2.85h8.65c1.57,0,2.85-1.28,2.85-2.85ZM74.25,70.91v-8.65c0-1.57-1.28-2.85-2.85-2.85h-8.65c-1.57,0-2.85,1.28-2.85,2.85v8.65c0,1.57,1.28,2.85,2.85,2.85h8.65c1.57,0,2.85-1.28,2.85-2.85ZM94.22,70.91v-8.65c0-1.57-1.28-2.85-2.85-2.85h-8.65c-1.57,0-2.85,1.28-2.85,2.85v8.65c0,1.57,1.28,2.85,2.85,2.85h8.65c1.57,0,2.85-1.28,2.85-2.85ZM54.29,90.71v-8.65c0-1.57-1.28-2.85-2.85-2.85h-8.65c-1.57,0-2.85,1.28-2.85,2.85v8.65c0,1.57,1.28,2.85,2.85,2.85h8.65c1.57,0,2.85-1.28,2.85-2.85ZM74.25,90.71v-8.65c0-1.57-1.28-2.85-2.85-2.85h-8.65c-1.57,0-2.85,1.28-2.85,2.85v8.65c0,1.57,1.28,2.85,2.85,2.85h8.65c1.57,0,2.85-1.28,2.85-2.85ZM34.32,110.51v-8.65c0-1.57-1.28-2.85-2.85-2.85h-8.65c-1.57,0-2.85,1.28-2.85,2.85v8.65c0,1.57,1.28,2.85,2.85,2.85h8.65c1.57,0,2.85-1.28,2.85-2.85ZM54.29,110.51v-8.65c0-1.57-1.28-2.85-2.85-2.85h-8.65c-1.57,0-2.85,1.28-2.85,2.85v8.65c0,1.57,1.28,2.85,2.85,2.85h8.65c1.57,0,2.85-1.28,2.85-2.85ZM14.36,130.31v-8.65c0-1.57-1.28-2.85-2.85-2.85H2.85c-1.57,0-2.85,1.28-2.85,2.85v8.65c0,1.57,1.28,2.85,2.85,2.85h8.65c1.57,0,2.85-1.28,2.85-2.85ZM34.32,130.31v-8.65c0-1.57-1.28-2.85-2.85-2.85h-8.65c-1.57,0-2.85,1.28-2.85,2.85v8.65c0,1.57,1.28,2.85,2.85,2.85h8.65c1.57,0,2.85-1.28,2.85-2.85ZM54.29,130.31v-8.65c0-1.57-1.28-2.85-2.85-2.85h-8.65c-1.57,0-2.85,1.28-2.85,2.85v8.65c0,1.57,1.28,2.85,2.85,2.85h8.65c1.57,0,2.85-1.28,2.85-2.85ZM74.25,130.31v-8.65c0-1.57-1.28-2.85-2.85-2.85h-8.65c-1.57,0-2.85,1.28-2.85,2.85v8.65c0,1.57,1.28,2.85,2.85,2.85h8.65c1.57,0,2.85-1.28,2.85-2.85ZM94.22,130.31v-8.65c0-1.57-1.28-2.85-2.85-2.85h-8.65c-1.57,0-2.85,1.28-2.85,2.85v8.65c0,1.57,1.28,2.85,2.85,2.85h8.65c1.57,0,2.85-1.28,2.85-2.85ZM114.19,130.31v-8.65c0-1.57-1.28-2.85-2.85-2.85h-8.65c-1.57,0-2.85,1.28-2.85,2.85v8.65c0,1.57,1.28,2.85,2.85,2.85h8.65c1.57,0,2.85-1.28,2.85-2.85ZM134.15,130.31v-8.65c0-1.57-1.28-2.85-2.85-2.85h-8.65c-1.57,0-2.85,1.28-2.85,2.85v8.65c0,1.57,1.28,2.85,2.85,2.85h8.65c1.57,0,2.85-1.28,2.85-2.85Z"/></g></svg>