<?xml version="1.0" encoding="UTF-8"?><svg id="Layer_2" xmlns="http://www.w3.org/2000/svg" viewBox="0 0 134.15 133.16"><defs><style>.cls-1{fill:#fff;}.cls-2{fill:#d4d2c7;}</style></defs><g id="Layer_1-2"><rect class="cls-2" width="14.36" height="14.36" rx="2.85" ry="2.85"/><rect class="cls-2" x="19.97" width="14.36" height="14.36" rx="2.85" ry="2.85"/><rect class="cls-2" x="39.93" width="14.36" height="14.36" rx="2.85" ry="2.85"/><rect class="cls-2" x="59.9" width="14.36" height="14.36" rx="2.85" ry="2.85"/><rect class="cls-2" x="79.86" width="14.36" height="14.36" rx="2.85" ry="2.85"/><rect class="cls-2" x="99.83" width="14.36" height="14.36" rx="2.85" ry="2.85"/><rect class="cls-2" x="119.8" width="14.36" height="14.36" rx="2.85" ry="2.85"/><rect class="cls-2" x="99.83" y="19.8" width="14.36" height="14.36" rx="2.85" ry="2.85"/><rect class="cls-2" x="119.8" y="19.8" width="14.36" height="14.36" rx="2.85" ry="2.85"/><rect class="cls-2" x="79.86" y="39.6" width="14.36" height="14.36" rx="2.85" ry="2.85"/><rect class="cls-2" x="99.83" y="39.6" width="14.36" height="14.36" rx="2.85" ry="2.85"/><rect class="cls-2" x="59.9" y="59.4" width="14.36" height="14.36" rx="2.85" ry="2.85"/><rect class="cls-2" x="79.86" y="59.4" width="14.36" height="14.36" rx="2.85" ry="2.85"/><rect class="cls-2" x="39.93" y="79.2" width="14.36" height="14.36" rx="2.85" ry="2.85"/><rect class="cls-2" x="59.9" y="79.2" width="14.36" height="14.36" rx="2.85" ry="2.85"/><rect class="cls-2" x="19.97" y="99" width="14.36" height="14.36" rx="2.85" ry="2.85"/><rect class="cls-2" x="39.93" y="99" width="14.36" height="14.36" rx="2.85" ry="2.85"/><rect class="cls-2" y="118.81" width="14.36" height="14.36" rx="2.85" ry="2.85"/><rect class="cls-2" x="19.97" y="118.81" width="14.36" height="14.36" rx="2.85" ry="2.85"/><rect class="cls-2" x="39.93" y="118.81" width="14.36" height="14.36" rx="2.85" ry="2.85"/><rect class="cls-2" x="59.9" y="118.81" width="14.36" height="14.36" rx="2.85" ry="2.85"/><rect class="cls-2" x="79.86" y="118.81" width="14.36" height="14.36" rx="2.85" ry="2.85"/><rect class="cls-2" x="99.83" y="118.81" width="14.36" height="14.36" rx="2.85" ry="2.85"/><rect class="cls-2" x="119.8" y="118.81" width="14.36" height="14.36" rx="2.85" ry="2.85"/><rect class="cls-1" width="14.36" height="14.36" rx="2.85" ry="2.85"/><rect class="cls-1" x="19.97" width="14.36" height="14.36" rx="2.85" ry="2.85"/><rect class="cls-1" x="39.93" width="14.36" height="14.36" rx="2.85" ry="2.85"/><rect class="cls-1" x="59.9" width="14.36" height="14.36" rx="2.85" ry="2.85"/><rect class="cls-1" x="79.86" width="14.36" height="14.36" rx="2.85" ry="2.85"/><rect class="cls-1" x="99.83" width="14.36" height="14.36" rx="2.85" ry="2.85"/><rect class="cls-1" x="119.8" width="14.36" height="14.36" rx="2.85" ry="2.85"/><rect class="cls-1" x="99.83" y="19.8" width="14.36" height="14.36" rx="2.85" ry="2.85"/><rect class="cls-1" x="119.8" y="19.8" width="14.36" height="14.36" rx="2.85" ry="2.85"/><rect class="cls-1" x="79.86" y="39.6" width="14.36" height="14.36" rx="2.85" ry="2.85"/><rect class="cls-1" x="99.83" y="39.6" width="14.36" height="14.36" rx="2.85" ry="2.85"/><rect class="cls-1" x="59.9" y="59.4" width="14.36" height="14.36" rx="2.85" ry="2.85"/><rect class="cls-1" x="79.86" y="59.4" width="14.36" height="14.36" rx="2.85" ry="2.85"/><rect class="cls-1" x="39.93" y="79.2" width="14.36" height="14.36" rx="2.85" ry="2.85"/><rect class="cls-1" x="59.9" y="79.2" width="14.36" height="14.36" rx="2.85" ry="2.85"/><rect class="cls-1" x="19.97" y="99" width="14.36" height="14.36" rx="2.85" ry="2.85"/><rect class="cls-1" x="39.93" y="99" width="14.36" height="14.36" rx="2.85" ry="2.85"/><rect class="cls-1" y="118.81" width="14.36" height="14.36" rx="2.85" ry="2.85"/><rect class="cls-1" x="19.97" y="118.81" width="14.36" height="14.36" rx="2.85" ry="2.85"/><rect class="cls-1" x="39.93" y="118.81" width="14.36" height="14.36" rx="2.85" ry="2.85"/><rect class="cls-1" x="59.9" y="118.81" width="14.36" height="14.36" rx="2.85" ry="2.85"/><rect class="cls-1" x="79.86" y="118.81" width="14.36" height="14.36" rx="2.85" ry="2.85"/><rect class="cls-1" x="99.83" y="118.81" width="14.36" height="14.36" rx="2.85" ry="2.85"/><rect class="cls-1" x="119.8" y="118.81" width="14.36" height="14.36" rx="2.85" ry="2.85"/></g></svg>